inDegrees=no
num_controls=7
num_derivatives=13
num_iterations=200
num_multipliers=7
num_parameters=0
num_slacks=7
num_states=26
objective=5.710659
objective_accelerations=0.406587
objective_balance=0.011675
objective_effort=0.438922
objective_height=4.740080
objective_ligament=0.113395
solver_duration=1690.936161
status=Solve_Succeeded
success=true
DataType=double
version=3
OpenSimVersion=4.4-2022-07-23-0e9fedc
endheader
time	/jointset/ground_pelvis/pelvis_tilt/value	/jointset/ground_pelvis/pelvis_tx/value	/jointset/ground_pelvis/pelvis_ty/value	/jointset/hip_r/hip_flexion_r/value	/jointset/hip_r/hip_adduction_r/value	/jointset/hip_r/hip_rotation_r/value	/jointset/back/lumbar_extension/value	/jointset/patellofemoral_r/patellar_flexion_r/value	/jointset/knee_r/knee_flexion_r/value	/jointset/knee_r/knee_adduction_r/value	/jointset/knee_r/knee_rotation_r/value	/jointset/ankle_r/ankle_angle_r/value	/jointset/subtalar_r/subtalar_angle_r/value	/jointset/ground_pelvis/pelvis_tilt/speed	/jointset/ground_pelvis/pelvis_tx/speed	/jointset/ground_pelvis/pelvis_ty/speed	/jointset/hip_r/hip_flexion_r/speed	/jointset/hip_r/hip_adduction_r/speed	/jointset/hip_r/hip_rotation_r/speed	/jointset/back/lumbar_extension/speed	/jointset/patellofemoral_r/patellar_flexion_r/speed	/jointset/knee_r/knee_flexion_r/speed	/jointset/knee_r/knee_adduction_r/speed	/jointset/knee_r/knee_rotation_r/speed	/jointset/ankle_r/ankle_angle_r/speed	/jointset/subtalar_r/subtalar_angle_r/speed	/forceset/tau_hip_flexion_r	/forceset/tau_hip_adduction_r	/forceset/tau_hip_rotation_r	/forceset/tau_knee_flexion_r	/forceset/tau_ankle_angle_r	/forceset/tau_subtalar_angle_r	/forceset/tau_lumbar_extension	lambda_cid13_p0	lambda_cid14_p0	lambda_cid14_p1	lambda_cid14_p2	lambda_cid14_p3	lambda_cid14_p4	lambda_cid14_p5	/jointset/ground_pelvis/pelvis_tilt/accel	/jointset/ground_pelvis/pelvis_tx/accel	/jointset/ground_pelvis/pelvis_ty/accel	/jointset/hip_r/hip_flexion_r/accel	/jointset/hip_r/hip_adduction_r/accel	/jointset/hip_r/hip_rotation_r/accel	/jointset/back/lumbar_extension/accel	/jointset/patellofemoral_r/patellar_flexion_r/accel	/jointset/knee_r/knee_flexion_r/accel	/jointset/knee_r/knee_adduction_r/accel	/jointset/knee_r/knee_rotation_r/accel	/jointset/ankle_r/ankle_angle_r/accel	/jointset/subtalar_r/subtalar_angle_r/accel	gamma_cid13_p0	gamma_cid14_p0	gamma_cid14_p1	gamma_cid14_p2	gamma_cid14_p3	gamma_cid14_p4	gamma_cid14_p5
0.5	-0.2473199926894441	-0.02309106991675752	0.8361249686788313	0.9205892519603722	-0.2180387508150773	-0.1482988609634194	-0.6568469162795135	0.6941874803417988	0.6941874803417921	0.008611726617438647	0.1745313308922812	0.09361507757148051	0.07627786087916068	-0.6985359596123601	-0.3195665063547487	-0.3617111121563879	1.91152700836881	-0.01088225321917383	0.2338342551569508	-0.7293401146299082	1.202775636198698	1.202775636198686	-0.1951459837056334	-5.486827913763718e-06	0.0345778037149754	-0.006825709859240815	-0.2573284613456703	-0.0121012966773133	0.01480514189858349	-0.2020081229934775	0.06670352150874136	0.0005931554860557295	0.2755695151863812	-21.41641000374159	-21.79192127289791	-0.2677649799638576	-3.293617337311181	-7.570438978693131	-651.8276681900104	68.49589546015822	0.290492608572429	0.7000207443266799	-0.1699847173084524	-1.505780113426185	-0.04187703730618789	-0.226761789330169	1.974051622895678	-1.048220576990883	-1.048220576990849	0.5067709435959707	-0.02387041222933964	0.06932115754840122	-0.02837555385829163	-2.31225426008076e-08	3.084455824866369e-08	4.588949257635415e-07	2.410208359892154e-07	-6.324706768087857e-08	-5.83738925695657e-08	1.22699809108363e-07
0.51	-0.2542895791880371	-0.02625145659229486	0.8325001829130358	0.939626377362197	-0.2181497596587306	-0.1459732018820451	-0.6640410952846886	0.7061610655547033	0.7061610655546999	0.006685374186658487	0.1745312057091342	0.09396414248785033	0.07620803638281293	-0.6952779383509624	-0.312485213592745	-0.3631658311075133	1.895644086967309	-0.01131629716324551	0.2312769146995072	-0.7094163568756578	1.191780842984855	1.19178084298482	-0.1901146094097033	-1.50857657073145e-05	0.03522307027389548	-0.007138579232986047	-0.2654144980040704	-0.01188624317534464	0.01499284793259994	-0.2039717532613453	0.06793370015705603	0.001169619783667264	0.2822403605288425	-20.86630006778408	-21.62689466888485	-0.06779346049509138	-3.234939338357484	-7.860150417962264	-655.9945075863749	68.89144141013355	0.3589705993403967	0.7160135652942742	-0.1211954671431616	-1.667642832420672	-0.0436042516349258	-0.2733345254364847	2.013437281305188	-1.14918868603319	-1.149188686036465	0.502889353773579	0.0112002124078211	0.06030039513238879	-0.03255304247655115	-2.424022935491056e-08	2.267824091226464e-08	4.043285089299673e-07	1.793365495754693e-07	-5.422018662051218e-08	-5.693619894385021e-08	1.002317014483018e-07
0.52	-0.2612234827311452	-0.02934026433558021	0.8288632539611029	0.9584970546142205	-0.2182649961775564	-0.1436737390755523	-0.6710336568264	0.7180198868369679	0.7180198868369844	0.004809649235027812	0.1745311255060339	0.0943192942678224	0.07613512111005891	-0.691399368512857	-0.305250719904352	-0.3641397493838547	1.878237378409486	-0.01172778825439722	0.2285950001826513	-0.6890166219367885	1.179822850072924	1.179822850072866	-0.1850204878664907	3.509174983696976e-06	0.03579517643555986	-0.007443865140487401	-0.2735005346624585	-0.01167118967340155	0.01518055396688585	-0.2059353835292073	0.06916387880535217	0.001746084081232724	0.2889112058713201	-20.3166576830481	-21.46442772607627	0.1323771258273816	-3.177032275225861	-8.158899039002934	-660.2069074849694	69.29275725219971	0.4146023239139578	0.7306609296046731	-0.0738245823516373	-1.810537544690503	-0.03736646672219569	-0.251676601212622	2.069247059819542	-1.240860516608628	-1.240860516608643	0.5193203930525219	-0.01823163653244195	0.05468907809739917	-0.0268588606094855	-2.758242901860729e-08	8.100822258151257e-09	3.180991186861262e-07	6.712666205162974e-08	-4.00050109010679e-08	-5.612529231224839e-08	6.176695690628591e-08
0.53	-0.2681155505750199	-0.03235604672462779	0.8252189802871076	0.9771862432193729	-0.2183843556187595	-0.1414010859856049	-0.6778199674256346	0.7297544997502616	0.7297544997503099	0.002985704182560497	0.1745310027424127	0.09467976323759131	0.07605901868562184	-0.6869113915237146	-0.2978882292739597	-0.3646345085099764	1.859358682262815	-0.01213975756022821	0.2259150586527831	-0.6681836569409015	1.166948180754519	1.166948180754517	-0.1797636097529658	-2.28745634885194e-05	0.03628469897184286	-0.007775154758710208	-0.2814234898337694	-0.0114557439308205	0.01533501588199326	-0.2078282059235839	0.07020735277878377	0.00229688681944472	0.2953662297352749	-19.76791712103298	-21.36016053617208	0.3140335534728485	-3.119395879259146	-8.349167074944345	-664.3244312515768	69.65222384555382	0.4813158110590477	0.7416659171775466	-0.02524118171225714	-1.962786291828616	-0.0424254432582551	-0.2792698842840134	2.099597365024287	-1.333497046856706	-1.333497046848115	0.5296575433788961	0.005930761243504596	0.04398828507806971	-0.03600033486451698	-2.874737696535156e-08	2.8672281608772e-10	2.598735228584517e-07	2.853248066065275e-09	-3.201587644719449e-08	-5.109828914358131e-08	3.717929228036967e-08
